<mxfile host="app.diagrams.net" modified="2024-04-08T14:03:42.084Z" agent="Mozilla/5.0 (Windows NT 10.0; Win64; x64; rv:124.0) Gecko/20100101 Firefox/124.0" version="24.1.0" etag="JcPicf4e4eZ4S25S4PtD" type="github">
  <diagram name="第 1 页" id="6DrWbeyX54Hoq6Tx1pMQ">
    <mxGraphModel>
      <root>
        <mxCell id="0" />
        <mxCell id="1" parent="0" />
      </root>
    </mxGraphModel>
  </diagram>
</mxfile>
